<?xml version="1.0" encoding="utf-8"?>
<!-- Generator: Adobe Illustrator 24.0.2, SVG Export Plug-In . SVG Version: 6.00 Build 0)  -->
<svg version="1.1" id="Layer_1" xmlns="http://www.w3.org/2000/svg" xmlns:xlink="http://www.w3.org/1999/xlink" x="0px" y="0px"
	 viewBox="0 0 1080 269.3" style="enable-background:new 0 0 1080 269.3;" xml:space="preserve">
<style type="text/css">
	.st0{fill:#FFFFFF;}
</style>
<g>
	<path class="st0" d="M198.3,150.2c-4,8.3-9.7,14.8-17,19.2c-7.3,4.5-15.6,6.7-25.1,6.7c-9.5,0-17.9-2.2-25.2-6.7
		c-7.3-4.5-13-10.9-17.1-19.2c-4.1-8.3-6.1-18.1-6.1-29.4v-43c0-11.2,2-21,6.1-29.4c4.1-8.4,9.7-14.8,17-19.3s15.6-6.7,25.1-6.7
		c9.5,0,17.9,2.2,25.2,6.7c7.3,4.5,13,10.9,17,19.3c4.1,8.4,6.1,18.2,6.1,29.4v43C204.4,132.1,202.4,141.8,198.3,150.2z M173.6,51.5
		c-4.1-6.1-10-9.1-17.5-9.1c-7.6,0-13.5,3-17.5,9c-4.1,6-6.1,14.8-6.1,26.3v43.1c0,11.4,2.1,20.2,6.2,26.3c4.1,6.1,10,9.2,17.6,9.2
		c7.6,0,13.4-3.1,17.5-9.2c4.1-6.1,6.1-14.9,6.1-26.3V77.7C179.8,66.3,177.7,57.5,173.6,51.5z"/>
	<path class="st0" d="M345.9,16l-27.4,136.9l-24.1,2.6l-18-98.1l-17.4,102.4l-23.8,3.3L207.7,20.2l24-0.8l16.8,105.6l17.7-106.8
		l20.5-0.7l17.8,101.3l17.2-102.2L345.9,16z"/>
	<path class="st0" d="M430,124v20.6l-76,4.8V15.7l75.9-1.1v19.6l-51.6,1.1v34l44-0.7v18.9l-44,0.7v37.5L430,124z"/>
	<path class="st0" d="M531.4,140.7v1.2l-25.9,0.2l-24-49.4h-16.6v50.4l-24.3,0.9V14.4h42.5c8.7,0,16.2,1.4,22.5,4.3
		c6.3,2.9,11.1,7.1,14.4,12.7c3.3,5.6,5,12.4,5,20.5c0,8.8-1.7,16-5.2,21.6c-3.5,5.6-8.4,10-14.8,13.3L531.4,140.7z M464.9,74h20.6
		c6.5,0,11.5-1.8,14.9-5.3c3.4-3.6,5.1-8.4,5.1-14.7c0-6.3-1.7-11.3-5-14.8c-3.4-3.6-8.3-5.3-14.9-5.3h-20.6V74z"/>
	<path class="st0" d="M669.2,14.8v130.7l-24.2-1.2V90.7h-43.8v51.9l-24.3-0.5V13.9l24.3,0.2v57h43.8V14.6L669.2,14.8z"/>
	<path class="st0" d="M773.5,126.1c-4,8.3-9.7,14.8-17,19.2c-7.3,4.5-15.6,6.7-25.1,6.7c-9.5,0-17.9-2.2-25.2-6.7
		c-7.3-4.5-13-10.9-17.1-19.2c-4.1-8.3-6.1-18.1-6.1-29.4V70.9c0-11.2,2-21,6.1-29.4c4.1-8.4,9.7-14.8,17-19.3
		c7.3-4.5,15.6-6.7,25.1-6.7c9.5,0,17.9,2.2,25.2,6.7c7.3,4.5,13,10.9,17,19.3c4.1,8.4,6.1,18.2,6.1,29.4v25.8
		C779.6,107.9,777.6,117.7,773.5,126.1z M748.8,44.5c-4.1-6.1-10-9.1-17.5-9.1c-7.6,0-13.5,3-17.5,9c-4.1,6-6.1,14.8-6.1,26.3v26
		c0,11.4,2.1,20.2,6.2,26.3c4.1,6.1,10,9.2,17.6,9.2c7.6,0,13.4-3.1,17.5-9.2c4.1-6.1,6.1-14.9,6.1-26.3v-26
		C755,59.3,752.9,50.5,748.8,44.5z"/>
	<path class="st0" d="M879.3,123.3c0,8.5-1.8,15.8-5.5,21.8c-3.7,6-8.7,10.6-15.3,13.7c-6.5,3.1-14.1,4.6-22.6,4.6
		c-8.6,0-16.2-1.5-22.8-4.6c-6.6-3.1-11.7-7.7-15.3-13.7c-3.7-6-5.5-13.3-5.5-21.8V17.5l24.4,0.7v100.6c0,13.7,6.4,20.6,19.2,20.6
		c6.2,0,11-1.7,14.2-5c3.2-3.3,4.9-8.5,4.9-15.6V19.6l24.3,1V123.3z"/>
	<path class="st0" d="M912.6,102.1c-5.5-4.1-9.9-9.2-13.2-15.4c-3.3-6.2-4.9-13.5-4.9-22c0-8.5,1.8-16,5.4-22.5
		c3.6-6.5,8.5-11.5,14.9-15c6.3-3.5,13.6-5.3,21.7-5.3c8.2,0,15.4,2,21.7,5.9c6.3,4,11.2,9.5,14.6,16.7c3.5,7.2,5.2,15.4,5.2,24.7
		h-24.2c0-6.5-1.5-11.6-4.5-15.4c-3-3.8-7.4-5.7-13.3-5.7c-3.7,0-6.9,0.7-9.5,2.2c-2.6,1.5-4.6,3.5-5.9,6c-1.3,2.6-2,5.4-2,8.6
		c0,4.7,1.8,8.7,5.3,11.9c3.6,3.3,9.1,6.5,16.5,9.6c12.6,5.3,22,11.8,28.2,19.7c6.2,7.9,9.2,18,9.2,30.3c0,8.9-1.7,16.6-5,23
		c-3.4,6.4-8.1,11.3-14.3,14.7c-6.2,3.4-13.4,5-21.7,5c-7.9,0-15.4-1.9-22.4-5.6c-7-3.7-12.7-9.4-17-17.1
		c-4.4-7.7-6.6-17.1-6.6-28.2h24.4c0,8.8,1.9,15.1,5.6,19c3.7,3.9,9.1,5.8,16,5.8c5.5,0,9.7-1.5,12.5-4.5c2.8-3,4.2-7,4.2-11.9
		c0-3.6-0.6-6.7-1.7-9.2c-1.1-2.5-3.2-4.8-6.3-7c-3-2.2-7.5-4.7-13.5-7.3C924.7,109.9,918.1,106.2,912.6,102.1z"/>
	<path class="st0" d="M1066.8,181.8v28l-76-19.6V25.8l75.9,4.9v25.7l-51.6-4.2v47.6l44,5v22.5l-44-5v48.3L1066.8,181.8z"/>
	<g>
		<path class="st0" d="M80.1,38.1c6.4,4.9,11.4,11.6,14.8,20.1c3.4,8.6,5.1,18.3,5.1,29.3c0,10.9-1.7,20.4-5.1,28.6
			s-8.3,14.5-14.8,18.9c-6.4,4.4-14.7,7.1-22.8,8.3l-19.9,2.9v57l-24.3,6.7V30.8h44.2C66.1,30.8,73.7,33.2,80.1,38.1z M73.2,111.3
			c3.2-5.6,4.8-13.3,4.8-23c0-6.4-0.7-12.3-2.1-17.7c-1.4-5.3-3.5-9.6-6.4-12.8C66.6,54.6,63,53,58.6,53H37.4v71.5l21.2-3.1
			C66.4,120.2,70,116.9,73.2,111.3z"/>
	</g>
	<g>
		<path class="st0" d="M228.3,221.4v12.9h15.7v4h-15.7v16.6h-5v-37.5h5h18.2v4H228.3z"/>
		<path class="st0" d="M263.9,254.9v-37.5h5v37.5H263.9z"/>
		<path class="st0" d="M314.9,221.4h-12v33.5h-4.9v-33.5h-12v-4h17h12V221.4z"/>
		<path class="st0" d="M355.4,254.9l-18.8-29v29h-5v-37.5h5l18.9,29.1v-29.1h4.9v37.5H355.4z"/>
		<path class="st0" d="M404.1,250.9v4h-19.8h-4v-37.5h5h18.6v4h-18.6v12.1h16.2v4h-16.2v13.3H404.1z"/>
		<path class="st0" d="M423.4,233.8c-2.1-1.7-3.1-4-3.1-6.7c0-1.9,0.5-3.7,1.6-5.2c1.1-1.5,2.6-2.8,4.5-3.6s4.2-1.3,6.7-1.3
			c2.7,0,5.1,0.5,7.1,1.6c2,1,3.5,2.4,4.6,4.2c1.1,1.7,1.6,3.6,1.6,5.6h-5c0-2.2-0.7-4-2.1-5.3s-3.4-2-6.2-2c-2.5,0-4.4,0.6-5.7,1.7
			c-1.3,1.1-2,2.6-2,4.4c0,1.1,0.3,2,0.9,2.8c0.6,0.8,1.5,1.5,2.8,2.2c1.3,0.7,2.9,1.3,5,1.9c2.9,0.8,5.2,1.7,7,2.8
			c1.8,1,3.1,2.3,4,3.7c0.9,1.4,1.3,3.1,1.3,5c0,2-0.5,3.8-1.6,5.3c-1.1,1.5-2.6,2.7-4.6,3.5c-2,0.8-4.3,1.2-6.9,1.2
			c-2.4,0-4.7-0.4-6.8-1.3c-2.2-0.9-3.9-2.2-5.3-3.9c-1.4-1.7-2-3.8-2-6.2h5c0,1.6,0.4,3,1.2,4.1c0.8,1.1,1.9,1.9,3.3,2.4
			c1.4,0.5,2.9,0.8,4.6,0.8c2.6,0,4.5-0.5,6-1.6c1.4-1.1,2.1-2.5,2.1-4.4c0-1.2-0.3-2.2-0.8-3.1c-0.5-0.8-1.4-1.6-2.7-2.2
			c-1.3-0.7-3.1-1.3-5.5-2C428.4,237,425.4,235.5,423.4,233.8z"/>
		<path class="st0" d="M465.8,233.8c-2.1-1.7-3.1-4-3.1-6.7c0-1.9,0.5-3.7,1.6-5.2c1.1-1.5,2.6-2.8,4.5-3.6c1.9-0.9,4.2-1.3,6.7-1.3
			c2.7,0,5.1,0.5,7.1,1.6c2,1,3.5,2.4,4.6,4.2s1.6,3.6,1.6,5.6h-5c0-2.2-0.7-4-2.1-5.3c-1.4-1.3-3.4-2-6.2-2c-2.5,0-4.4,0.6-5.7,1.7
			c-1.3,1.1-2,2.6-2,4.4c0,1.1,0.3,2,0.9,2.8c0.6,0.8,1.5,1.5,2.8,2.2c1.3,0.7,2.9,1.3,5,1.9c2.9,0.8,5.2,1.7,7,2.8
			c1.8,1,3.1,2.3,4,3.7c0.9,1.4,1.3,3.1,1.3,5c0,2-0.5,3.8-1.6,5.3c-1.1,1.5-2.6,2.7-4.6,3.5c-2,0.8-4.3,1.2-6.9,1.2
			c-2.4,0-4.7-0.4-6.8-1.3c-2.2-0.9-3.9-2.2-5.3-3.9c-1.4-1.7-2-3.8-2-6.2h5c0,1.6,0.4,3,1.2,4.1c0.8,1.1,1.9,1.9,3.3,2.4
			c1.4,0.5,2.9,0.8,4.6,0.8c2.6,0,4.5-0.5,6-1.6c1.4-1.1,2.1-2.5,2.1-4.4c0-1.2-0.3-2.2-0.8-3.1c-0.5-0.8-1.4-1.6-2.7-2.2
			c-1.3-0.7-3.1-1.3-5.5-2C470.9,237,467.8,235.5,465.8,233.8z"/>
		<path class="st0" d="M552.9,254.9l-2.5-3c-1.3,1.1-2.7,2-4.5,2.6c-1.7,0.6-3.5,0.9-5.2,0.9c-2.5,0-4.6-0.5-6.4-1.4
			c-1.8-0.9-3.3-2.2-4.2-3.7c-1-1.6-1.5-3.4-1.5-5.5c0-1.4,0.3-2.7,0.9-3.9c0.6-1.2,1.4-2.2,2.4-3.2c1-1,2.4-2,4-3.2
			c-1.4-1.7-2.5-3.3-3.2-4.6c-0.7-1.3-1-2.7-1-4c0-1.9,0.4-3.6,1.2-4.9s1.9-2.4,3.3-3.1c1.4-0.7,3.1-1.1,5-1.1
			c1.8,0,3.4,0.4,4.7,1.1c1.4,0.7,2.4,1.7,3.1,2.9c0.7,1.2,1.1,2.5,1.1,4c0,1.7-0.4,3.2-1.3,4.4c-0.9,1.3-2.1,2.5-3.8,3.8l-2.8,2.1
			l8.3,10c1.2-2.2,1.7-4.7,1.7-7.4h4.3c0,4.4-1.1,8-3.2,10.9l5.4,6.4H552.9z M544.4,250.8c1.2-0.5,2.3-1.2,3.3-2.2l-9.2-11l-1.1,0.8
			c-1.6,1.2-2.7,2.3-3.2,3.4s-0.8,2.1-0.8,2.9c0,1.3,0.3,2.4,0.8,3.4c0.5,1,1.4,1.8,2.5,2.4c1.1,0.6,2.4,0.9,4,0.9
			C542,251.5,543.2,251.3,544.4,250.8z M538.6,221.4c-0.7,0.5-1.2,1.1-1.6,1.8c-0.4,0.8-0.5,1.6-0.5,2.6c0,0.9,0.3,1.8,0.8,2.8
			s1.3,2.1,2.3,3.4l2.7-1.9c1.2-0.8,2-1.6,2.6-2.4c0.5-0.8,0.8-1.7,0.8-3c0-0.7-0.2-1.3-0.5-2s-0.9-1.1-1.6-1.5
			c-0.7-0.4-1.5-0.6-2.4-0.6C540.1,220.7,539.3,220.9,538.6,221.4z"/>
		<path class="st0" d="M622.3,238.4c1.2,1.6,1.7,3.5,1.7,5.7c0,2.3-0.5,4.3-1.5,5.9c-1,1.6-2.5,2.9-4.3,3.7
			c-1.9,0.8-4.1,1.2-6.6,1.2h-11.2h-1.9v-37.5h12.3c3.9,0,7,0.8,9.1,2.4s3.2,4.1,3.2,7.6c0,1.7-0.5,3.3-1.5,4.6
			c-1,1.4-2.4,2.4-4.1,3.1C619.5,235.7,621.1,236.8,622.3,238.4z M603.4,221.4v12h7.4c1.4,0,2.6-0.2,3.7-0.7
			c1.1-0.5,1.9-1.2,2.5-2.1c0.6-0.9,0.9-2,0.9-3.2c0-2-0.6-3.5-1.8-4.5s-3-1.4-5.5-1.4H603.4z M617,249.1c1.3-1.2,2-2.9,2-4.9
			c0-2.2-0.6-3.8-1.8-5c-1.2-1.2-3-1.8-5.4-1.8h-8.4v13.6h8.1C613.9,250.9,615.7,250.3,617,249.1z"/>
		<path class="st0" d="M669.4,247c-1.2,2.7-3,4.8-5.2,6.2s-4.9,2.2-8,2.2c-3,0-5.6-0.7-7.9-2.2c-2.3-1.5-4.1-3.6-5.4-6.3
			c-1.3-2.7-1.9-5.9-1.9-9.6v-2.4c0-3.7,0.6-6.9,1.9-9.6c1.3-2.7,3-4.8,5.3-6.3c2.3-1.5,4.9-2.2,7.9-2.2c3,0,5.7,0.7,8,2.2
			c2.3,1.5,4,3.6,5.3,6.3c1.2,2.7,1.9,5.9,1.9,9.6v2.4C671.3,241.1,670.7,244.3,669.4,247z M665.1,227.4c-0.8-2.1-2-3.6-3.5-4.7
			c-1.5-1.1-3.3-1.6-5.5-1.6c-2,0-3.8,0.5-5.4,1.6s-2.7,2.6-3.5,4.7s-1.2,4.6-1.2,7.5v2.4c0,3,0.4,5.5,1.2,7.6
			c0.8,2.1,2,3.7,3.5,4.7s3.3,1.6,5.4,1.6c3.2,0,5.7-1.2,7.5-3.6c1.8-2.4,2.6-5.8,2.6-10.3v-2.4
			C666.3,231.9,665.9,229.4,665.1,227.4z"/>
		<path class="st0" d="M710.5,217.4h5.8L704.5,236l12.1,18.9h-5.9l-9.2-14.7l-9.3,14.7h-5.9l12.1-18.9l-11.9-18.6h5.9l9,14.4
			L710.5,217.4z"/>
		<path class="st0" d="M733.8,254.9v-37.5h5v37.5H733.8z"/>
		<path class="st0" d="M782.7,254.9l-18.8-29v29h-5v-37.5h5l18.9,29.1v-29.1h4.9v37.5H782.7z"/>
		<path class="st0" d="M830.8,253.8c-2.1,1.1-5,1.6-8.7,1.6c-3.1,0-5.8-0.7-8.1-2.1c-2.4-1.4-4.2-3.5-5.5-6.2c-1.3-2.7-2-5.9-2-9.5
			v-3c0-3.7,0.6-6.9,1.8-9.6c1.2-2.7,2.9-4.7,5.1-6.1c2.3-1.4,5-2.1,8.2-2.1c4.1,0,7.3,1,9.7,3.1c2.3,2.1,3.7,4.9,4.2,8.4h-5
			c-0.4-2.2-1.3-4-2.7-5.4s-3.5-2-6.1-2c-3.4,0-5.9,1.2-7.6,3.6s-2.5,5.8-2.5,10.1v3c0,2.8,0.4,5.3,1.3,7.4c0.9,2.1,2.1,3.7,3.7,4.8
			c1.6,1.1,3.5,1.6,5.6,1.6c2.4,0,4.1-0.3,5.4-0.8c1.2-0.5,2.2-1.2,2.9-1.9v-8.5h-8.7v-4h13.6V250
			C834.4,251.4,832.8,252.7,830.8,253.8z"/>
	</g>
</g>
</svg>
